<svg xmlns="http://www.w3.org/2000/svg" width="32" height="33.144" viewBox="0 0 32 33.144">
  <path id="icone_panier" data-name="icone panier" d="M19,2c-5.049,0-9.143,3.71-9.143,8.286v2.072H7.571A2.217,2.217,0,0,0,5.3,14.2L3.014,32.845a1.949,1.949,0,0,0,.569,1.61,2.4,2.4,0,0,0,1.7.69H32.714a2.4,2.4,0,0,0,1.7-.69,1.949,1.949,0,0,0,.569-1.61L32.7,14.2a2.217,2.217,0,0,0-2.272-1.844H28.143V10.286C28.143,5.71,24.049,2,19,2Zm4.571,10.358V10.286A4.373,4.373,0,0,0,19,6.143a4.373,4.373,0,0,0-4.571,4.143v2.072ZM9.857,18.572A2.187,2.187,0,0,1,12.143,16.5a2.187,2.187,0,0,1,2.286,2.072,2.187,2.187,0,0,1-2.286,2.072A2.187,2.187,0,0,1,9.857,18.572Zm16-2.072a2.187,2.187,0,0,0-2.286,2.072,2.3,2.3,0,0,0,4.571,0A2.187,2.187,0,0,0,25.857,16.5Z" transform="translate(-3 -2)" fill-rule="evenodd"/>
</svg>
