<svg xmlns="http://www.w3.org/2000/svg" width="60.5" height="60.5" viewBox="0 0 60.5 60.5">
  <g id="Icon_feather-instagram" data-name="Icon feather-instagram" transform="translate(-3.042 -3.042)">
    <path id="Tracé_65" data-name="Tracé 65" d="M19.687,6.083H46.9a13.6,13.6,0,0,1,13.6,13.6V46.9A13.6,13.6,0,0,1,46.9,60.5H19.687a13.6,13.6,0,0,1-13.6-13.6V19.687a13.6,13.6,0,0,1,13.6-13.6Z" transform="translate(0 0)" fill="none" stroke="#000" stroke-linecap="round" stroke-linejoin="round" stroke-width="6.083"/>
    <path id="Tracé_66" data-name="Tracé 66" d="M46.114,33.489a10.883,10.883,0,1,1-9.169-9.169,10.883,10.883,0,0,1,9.169,9.169Z" transform="translate(-1.939 -1.911)" fill="none" stroke="#000" stroke-linecap="round" stroke-linejoin="round" stroke-width="6.083"/>
    <path id="Tracé_67" data-name="Tracé 67" d="M53.229,19.771h0" transform="translate(-4.973 -1.444)" fill="none" stroke="#000" stroke-linecap="round" stroke-linejoin="round" stroke-width="6.083"/>
  </g>
</svg>
