<svg xmlns="http://www.w3.org/2000/svg" width="41.186" height="32.078" viewBox="0 0 41.186 32.078">
  <g id="loupe" transform="translate(-580.609 -834.233) rotate(-13)">
    <g id="Tracé_51" data-name="Tracé 51" transform="translate(376.787 949)" fill="#f4f4f4">
      <path d="M 12.63675498962402 23.77351570129395 C 9.662014961242676 23.77351570129395 6.865334987640381 22.6150951385498 4.761885166168213 20.51163482666016 C 2.658425092697144 18.40817451477051 1.500005006790161 15.61149501800537 1.500005006790161 12.63675498962402 C 1.500005006790161 9.662014961242676 2.658425092697144 6.865334987640381 4.761885166168213 4.761885166168213 C 6.865334987640381 2.658425092697144 9.662014961242676 1.500005006790161 12.63675498962402 1.500005006790161 C 15.61149501800537 1.500005006790161 18.40817451477051 2.658425092697144 20.51163482666016 4.761885166168213 C 22.6150951385498 6.865334987640381 23.77351570129395 9.662014961242676 23.77351570129395 12.63675498962402 C 23.77351570129395 15.61149501800537 22.61508560180664 18.40817451477051 20.51163482666016 20.51163482666016 C 18.40817451477051 22.61508560180664 15.61149501800537 23.77351570129395 12.63675498962402 23.77351570129395 Z" stroke="none"/>
      <path d="M 12.63675498962402 2.999994277954102 C 7.323024749755859 2.999994277954102 2.999994277954102 7.323024749755859 2.999994277954102 12.63675498962402 C 2.999994277954102 17.95047569274902 7.323024749755859 22.27350425720215 12.63675498962402 22.27350425720215 C 17.95047569274902 22.27350425720215 22.27350425720215 17.95047569274902 22.27350425720215 12.63675498962402 C 22.27350425720215 7.323024749755859 17.95047569274902 2.999994277954102 12.63675498962402 2.999994277954102 M 12.63675498962402 -5.7220458984375e-06 C 19.6158447265625 -5.7220458984375e-06 25.27350425720215 5.657665252685547 25.27350425720215 12.63675498962402 C 25.27350425720215 19.6158447265625 19.6158447265625 25.27350425720215 12.63675498962402 25.27350425720215 C 5.657665252685547 25.27350425720215 -5.7220458984375e-06 19.6158447265625 -5.7220458984375e-06 12.63675498962402 C -5.7220458984375e-06 5.657665252685547 5.657665252685547 -5.7220458984375e-06 12.63675498962402 -5.7220458984375e-06 Z" stroke="none" fill="#000"/>
    </g>
    <g id="Tracé_52" data-name="Tracé 52" transform="matrix(0.719, 0.695, -0.695, 0.719, 398.844, 966.436)" fill="#fff">
      <path d="M 16.90016174316406 4.20212459564209 L 1.500001788139343 4.20212459564209 L 1.500001788139343 1.500004649162292 L 16.90016174316406 1.500004649162292 L 16.90016174316406 4.20212459564209 Z" stroke="none"/>
      <path d="M 1.9073486328125e-06 4.76837158203125e-06 L 18.40016174316406 4.76837158203125e-06 L 18.40016174316406 5.70212459564209 L 1.9073486328125e-06 5.70212459564209 L 1.9073486328125e-06 4.76837158203125e-06 Z" stroke="none" fill="#000"/>
    </g>
    <path id="Tracé_28" data-name="Tracé 28" d="M2268.335,888.719s-.479-5.372,6.231-5.719" transform="translate(-1885.033 72.759)" fill="none" stroke="#000" stroke-width="2"/>
  </g>
</svg>
