<svg xmlns="http://www.w3.org/2000/svg" width="243" height="215" viewBox="0 0 243 215">
  <g id="pastille_compacte" data-name="pastille compacte" transform="translate(-517 -1234.052)" opacity="0.69" style="mix-blend-mode: multiply;isolation: isolate">
    <ellipse id="Ellipse_1" data-name="Ellipse 1" cx="121.5" cy="102.5" rx="121.5" ry="102.5" transform="translate(517 1234.052)" fill="#fff"/>
    <text id="COMPACTE" transform="translate(540 1393.052)" fill="#191717" font-size="42" font-family="SegoeUI, Segoe UI"><tspan x="0" y="45">COMPACTE</tspan></text>
    <g id="cube" transform="translate(592.927 1287.844)">
      <path id="Tracé_25" data-name="Tracé 25" d="M85.648,24.916a.868.868,0,0,0,0-1.5L52.455,4.129a13.938,13.938,0,0,0-13.979,0L5.293,23.414a.868.868,0,0,0,0,1.5L45.032,48.293a.868.868,0,0,0,.881,0Z" transform="translate(-0.268 -2.25)"/>
      <path id="Tracé_26" data-name="Tracé 26" d="M4.679,11.576a.868.868,0,0,0-1.3.757V50.122a10.431,10.431,0,0,0,5.18,8.994l35.238,21.13a.868.868,0,0,0,1.3-.751V35.652a.868.868,0,0,0-.436-.751Z" transform="translate(-3.375 17.002)"/>
      <path id="Tracé_27" data-name="Tracé 27" d="M19.127,35.8V79.478a.868.868,0,0,0,1.3.751L55.667,59.1a10.431,10.431,0,0,0,5.183-8.984V12.329a.868.868,0,0,0-1.3-.751L19.56,35.048a.868.868,0,0,0-.436.751Z" transform="translate(29.549 17.006)"/>
    </g>
  </g>
</svg>
