<svg xmlns="http://www.w3.org/2000/svg" width="109.447" height="105.207" viewBox="0 0 109.447 105.207">
  <path id="Tracé_56" data-name="Tracé 56" d="M3,12.1C3,7.072,7.339,3,12.691,3H28.585a4.83,4.83,0,0,1,4.594,3.111l7.259,20.433a4.444,4.444,0,0,1-2.433,5.5L27.069,37.186A51.979,51.979,0,0,0,53.8,62.272l5.476-10.264a4.973,4.973,0,0,1,5.863-2.283l21.772,6.813a4.583,4.583,0,0,1,3.314,4.316V75.766c0,5.023-4.339,9.1-9.691,9.1H75.685C35.544,84.861,3,54.318,3,16.644Z" transform="translate(17.351 0.586) rotate(11)" fill="none" stroke="#000" stroke-linecap="round" stroke-linejoin="round" stroke-width="7"/>
</svg>
