<svg xmlns="http://www.w3.org/2000/svg" width="28.655" height="32.333" viewBox="0 0 28.655 32.333">
  <path id="user" d="M28.655,26.755a5.868,5.868,0,0,1-1.4,3.937,4.282,4.282,0,0,1-3.369,1.642H4.768A4.28,4.28,0,0,1,1.4,30.692,5.874,5.874,0,0,1,0,26.755a28.5,28.5,0,0,1,.19-3.379,17.2,17.2,0,0,1,.7-3.2A10.348,10.348,0,0,1,2.2,17.419a6.085,6.085,0,0,1,5.116-2.6,10,10,0,0,0,7.007,2.694,10,10,0,0,0,7.007-2.694,6.089,6.089,0,0,1,5.115,2.6,10.348,10.348,0,0,1,1.31,2.757,17.2,17.2,0,0,1,.7,3.2,28.5,28.5,0,0,1,.19,3.379ZM22.924,8.083A7.56,7.56,0,0,1,20.405,13.8a8.559,8.559,0,0,1-6.078,2.368A8.549,8.549,0,0,1,8.25,13.8,7.564,7.564,0,0,1,5.731,8.083,7.564,7.564,0,0,1,8.25,2.368,8.549,8.549,0,0,1,14.328,0a8.559,8.559,0,0,1,6.078,2.368A7.56,7.56,0,0,1,22.924,8.083Z" transform="translate(0 0)"/>
</svg>
